# xmcd
#
# Track frame offsets: 
#        150
#        6095
#        41197
#        64255
#        98477
#        121832
#        146640
#        164552
#        177607
#        192097
#        208447
#        229437
#        256162
#        282105
#        298442
#        304352
#        309040
#
# Disc length: 4336 seconds
#
# Revision: 20
# Processed by: cddbd v1.5.2PL0 Copyright (c) Steve Scherf et al.
# Submitted via: ExactAudioCopy v1.0b2
#
DISCID=0710ee11
DTITLE=Various Artist - Space Battleship Yamato Eternal Edition File No.1
DYEAR=2000
DGENRE=Soundtrack
TTITLE0=Space Battleship Yamato (Opening Theme, TV size)
TTITLE1=The Universe Spreading to Infinity ~ Yamato Sleeps in the Sett
TTITLE1=ing Sun
TTITLE2=Battleship Yamato's Tragedy
TTITLE3=March of the Crew ~ Yamato Takes Off
TTITLE4=Desslar Enters ~ Successful Warp
TTITLE5=Saturn, Pluto, then the Asteroid Belt
TTITLE6=Scarlet Scarf ~ Farewell to the Solar System
TTITLE7=Trials of the Milky Way
TTITLE8=Planet Beemera
TTITLE9=The Tides of Battle in the Rainbow Star Cluster
TTITLE10=Tidal Wave in the Megallanic Cloud
TTITLE11=Decisive Battle on Gamilas
TTITLE12=Planet Iscandar ~ Starsha's Love
TTITLE13=The Death of Okita ~ Yamato Returns Home
TTITLE14=Scarlet Scarf (Ending Theme, TV size)
TTITLE15=Misc. Use Music
TTITLE16=Ending Chord Bridge Collection (21 pieces)
EXTD=YEAR: 2000.9.30
EXTT0=
EXTT1=
EXTT2=
EXTT3=
EXTT4=
EXTT5=
EXTT6=
EXTT7=
EXTT8=
EXTT9=
EXTT10=
EXTT11=
EXTT12=
EXTT13=
EXTT14=
EXTT15=
EXTT16=
PLAYORDER=
